<?xml version="1.0" encoding="UTF-8" standalone="no"?>
<!DOCTYPE svg PUBLIC "-//W3C//DTD SVG 1.1//EN" "http://www.w3.org/Graphics/SVG/1.1/DTD/svg11.dtd">
<svg xmlns="http://www.w3.org/2000/svg" version="1.1" viewBox="0.00 0.00 500.00 500.00">
<path fill="#122738" d="
  M 365.64 343.11
  C 364.92 344.68 364.44 346.72 363.70 348.00
  Q 358.27 357.39 349.43 363.66
  C 348.38 364.40 346.81 364.89 345.60 365.64
  C 337.59 370.63 330.61 371.98 320.45 371.99
  Q 250.39 372.03 180.33 372.00
  C 169.13 372.00 162.79 369.64 153.79 364.72
  C 141.71 358.12 134.15 344.46 132.50 331.49
  Q 132.13 328.58 132.11 311.50
  Q 132.00 212.56 132.07 113.62
  C 132.07 108.24 131.69 99.71 133.08 95.56
  C 134.42 91.53 135.41 87.15 137.30 83.60
  C 142.79 73.33 154.16 64.85 165.26 61.80
  Q 169.99 60.50 179.38 60.50
  Q 254.06 60.47 328.75 60.50
  Q 332.71 60.50 338.06 62.34
  C 348.94 66.08 360.49 74.81 364.87 85.74
  C 367.51 92.31 369.26 97.65 369.26 104.75
  Q 369.26 212.12 369.26 319.50
  C 369.26 327.73 369.12 335.48 365.64 343.11
  Z
  M 177.00 69.90
  C 170.35 69.89 162.83 71.17 157.58 74.86
  C 148.44 81.29 141.13 92.15 141.13 103.50
  Q 141.19 214.25 140.99 325.00
  C 140.96 342.13 153.01 358.25 169.83 362.29
  Q 173.81 363.25 189.75 363.25
  Q 253.60 363.24 317.45 363.23
  Q 328.79 363.23 333.43 361.91
  C 345.32 358.52 356.38 346.74 359.39 334.69
  Q 360.31 331.01 360.31 321.72
  Q 360.33 212.86 360.24 104.00
  C 360.23 92.11 353.48 81.39 343.73 75.02
  C 339.95 72.55 332.47 69.92 328.50 69.93
  Q 252.75 69.96 177.00 69.90
  Z"
/>
<path fill="#122738" d="
  M 281.00 87.12
  C 286.43 87.12 290.26 83.25 291.13 78.08
  Q 291.22 77.54 291.76 77.54
  Q 308.25 77.45 324.59 77.51
  C 332.97 77.55 339.60 80.29 345.05 86.83
  C 349.17 91.77 352.15 97.08 352.15 103.75
  Q 352.06 210.79 352.06 317.84
  C 352.06 328.90 352.65 336.25 345.78 343.85
  C 344.34 345.44 343.16 347.27 341.63 348.57
  C 335.49 353.77 329.94 355.02 321.35 355.02
  Q 251.28 355.04 181.21 355.01
  Q 172.82 355.01 168.93 353.74
  C 157.34 349.98 149.33 338.37 149.33 326.00
  Q 149.38 215.25 149.36 104.50
  C 149.36 93.02 157.56 81.94 168.75 78.56
  Q 172.19 77.52 178.87 77.50
  Q 194.39 77.44 209.92 77.49
  Q 210.44 77.49 210.53 78.01
  C 211.74 84.80 215.99 87.09 222.71 87.11
  Q 251.87 87.16 281.00 87.12
  Z
  M 336.7124 96.7859
  A 5.87 5.54 7.3 0 0 331.5939 90.5449
  A 5.87 5.54 7.3 0 0 325.0676 95.2941
  A 5.87 5.54 7.3 0 0 330.1861 101.5351
  A 5.87 5.54 7.3 0 0 336.7124 96.7859
  Z
  M 258.35 297.55
  Q 263.50 288.38 270.37 282.62
  C 278.02 276.21 285.22 268.86 291.26 263.36
  C 293.80 261.05 297.98 257.91 301.00 254.75
  Q 306.58 248.94 306.64 248.88
  C 312.01 243.63 318.32 238.42 322.03 231.80
  Q 327.55 221.93 329.70 217.53
  C 340.89 194.73 339.68 168.68 327.31 146.24
  C 325.32 142.64 322.22 137.58 319.02 133.98
  Q 312.08 126.17 304.07 119.45
  C 299.75 115.82 295.10 113.39 290.07 110.90
  C 266.05 99.00 237.42 98.22 213.01 110.26
  C 207.73 112.87 202.01 115.40 197.50 119.24
  Q 189.27 126.26 182.12 134.35
  C 178.26 138.73 175.80 143.65 173.12 148.82
  C 164.09 166.22 162.08 184.97 166.75 203.90
  Q 168.81 212.25 171.56 217.23
  C 175.78 224.85 179.16 232.99 185.19 239.31
  Q 187.96 242.21 192.05 246.11
  C 196.29 250.15 201.67 255.99 207.08 260.40
  C 213.44 265.59 219.22 271.59 225.12 277.30
  C 229.38 281.44 236.05 286.15 239.07 291.21
  Q 240.97 294.39 243.11 297.51
  Q 243.49 298.06 242.82 298.08
  Q 238.79 298.22 235.98 300.45
  C 231.95 303.64 233.14 310.16 238.23 311.48
  A 0.94 0.94 0.0 0 1 238.94 312.44
  C 238.44 322.75 234.47 340.39 250.64 340.32
  C 267.02 340.25 263.22 322.89 262.69 312.32
  A 0.71 0.70 78.5 0 1 263.14 311.63
  C 268.70 309.54 270.42 302.68 264.48 299.60
  Q 261.69 298.15 258.55 297.93
  Q 258.14 297.91 258.35 297.55
  Z"
/>
<rect fill="#122738" x="247.95" y="110.89" width="6.02" height="127.08" rx="0.52"/>
<path fill="#122738" d="
  M 234.91 220.33
  Q 233.93 218.47 233.93 217.78
  Q 233.86 189.44 233.70 161.09
  Q 233.69 159.48 234.30 154.48
  C 234.81 150.35 233.73 146.02 233.74 142.51
  Q 233.75 127.59 233.55 112.95
  Q 233.55 112.72 233.77 112.68
  L 241.78 111.06
  A 0.24 0.23 -5.1 0 1 242.06 111.29
  L 242.01 236.25
  Q 242.01 238.59 241.05 236.44
  Q 240.89 236.07 240.48 234.63
  Q 238.29 226.71 234.91 220.33
  Z"
/>
<path fill="#122738" d="
  M 266.95 220.37
  Q 262.77 228.50 260.60 235.86
  Q 259.75 238.76 259.75 235.74
  L 259.75 111.31
  Q 259.75 111.05 260.01 111.10
  L 268.00 112.55
  Q 268.26 112.60 268.26 112.87
  Q 268.10 127.68 268.03 142.73
  C 268.01 146.97 266.52 150.82 267.53 155.03
  Q 268.15 157.61 268.14 159.22
  Q 267.96 187.84 268.24 216.46
  C 268.25 218.04 267.64 219.02 266.95 220.37
  Z"
/>
<path fill="#122738" d="
  M 214.94 118.92
  C 218.48 116.38 222.93 114.68 227.25 114.13
  Q 227.74 114.07 227.74 114.57
  L 227.68 134.40
  Q 227.67 134.96 227.31 134.53
  L 214.86 119.58
  Q 214.54 119.20 214.94 118.92
  Z"
/>
<path fill="#122738" d="
  M 286.97 120.17
  Q 280.20 127.17 274.55 135.16
  Q 274.01 135.93 274.01 134.99
  L 274.06 114.64
  A 0.38 0.37 -87.8 0 1 274.45 114.27
  C 277.47 114.47 280.54 115.62 283.09 116.73
  Q 285.30 117.71 286.97 119.44
  Q 287.32 119.81 286.97 120.17
  Z"
/>
<path fill="#122738" d="
  M 217.65 134.53
  Q 208.78 131.53 200.03 131.79
  Q 198.80 131.83 199.50 130.82
  Q 202.88 126.00 207.98 123.00
  A 0.56 0.56 0.0 0 1 208.63 123.07
  C 211.05 125.33 217.89 131.45 218.83 134.42
  Q 218.94 134.78 218.57 134.73
  Q 218.07 134.67 217.65 134.53
  Z"
/>
<path fill="#122738" d="
  M 301.85 131.75
  C 295.72 131.81 288.79 132.65 282.93 134.66
  Q 281.41 135.18 282.53 134.03
  L 293.11 123.18
  A 0.71 0.71 0.0 0 1 294.02 123.09
  Q 298.77 126.42 302.19 131.08
  A 0.42 0.42 0.0 0 1 301.85 131.75
  Z"
/>
<path fill="#122738" d="
  M 213.46 140.77
  C 203.00 145.94 203.59 159.59 213.36 165.17
  Q 213.81 165.42 213.81 165.93
  C 213.90 172.64 214.82 180.60 212.30 186.94
  Q 211.81 188.17 211.00 187.12
  Q 207.67 182.76 203.93 177.81
  C 195.79 167.06 192.51 151.75 197.03 138.58
  Q 197.20 138.08 197.72 138.05
  Q 205.72 137.56 213.38 139.83
  Q 214.63 140.20 213.46 140.77
  Z"
/>
<path fill="#122738" d="
  M 303.34 167.07
  Q 301.34 172.64 299.23 175.45
  Q 295.05 181.04 290.70 187.01
  Q 290.06 187.88 289.59 186.92
  C 286.71 181.05 287.93 172.62 287.92 166.10
  Q 287.92 165.58 288.35 165.27
  Q 289.20 164.65 290.06 164.08
  C 298.94 158.18 297.51 144.99 287.91 140.71
  Q 286.94 140.28 287.95 139.96
  Q 295.68 137.54 303.77 138.07
  Q 304.34 138.11 304.54 138.64
  C 308.38 148.47 306.97 156.94 303.34 167.07
  Z"
/>
<path fill="#122738" d="
  M 323.08 164.86
  C 322.67 177.67 317.40 191.47 307.89 200.39
  Q 307.56 200.69 307.21 200.40
  L 296.74 191.59
  Q 296.33 191.25 296.63 190.81
  C 298.45 188.15 300.63 185.81 302.21 183.12
  Q 303.92 180.20 305.75 177.36
  C 312.82 166.38 314.77 153.31 312.29 140.48
  Q 312.20 140.02 312.52 140.36
  Q 319.60 147.88 322.67 156.58
  C 323.58 159.17 323.15 162.43 323.08 164.86
  Z"
/>
<path fill="#122738" d="
  M 189.26 141.08
  C 186.84 154.25 189.13 167.27 196.51 178.37
  C 197.37 179.66 197.82 181.18 198.71 182.39
  Q 201.93 186.74 205.19 191.05
  Q 205.54 191.52 205.04 191.82
  Q 199.10 195.36 194.39 200.42
  Q 194.03 200.81 193.67 200.42
  C 191.69 198.33 189.58 196.38 188.05 194.01
  Q 178.44 179.19 177.90 161.50
  Q 177.81 158.45 179.01 155.71
  Q 182.73 147.21 189.23 140.06
  A 0.22 0.22 0.0 0 1 189.59 140.30
  Q 189.46 140.57 189.37 140.75
  Q 189.29 140.91 189.26 141.08
  Z"
/>
<circle fill="#122738" cx="219.96" cy="152.65" r="7.37"/>
<ellipse fill="#122738" cx="0.00" cy="0.00" transform="translate(281.77,152.67) rotate(14.3)" rx="7.51" ry="7.30"/>
<path fill="#122738" d="
  M 216.09 192.66
  C 218.76 189.74 219.14 186.53 219.28 181.49
  Q 219.48 174.55 219.25 167.54
  Q 219.24 167.01 219.77 167.02
  Q 223.83 167.09 227.24 164.92
  Q 227.82 164.55 227.82 165.24
  L 227.80 208.91
  A 0.15 0.14 -63.7 0 1 227.54 209.00
  L 216.05 193.51
  A 0.67 0.67 0.0 0 1 216.09 192.66
  Z"
/>
<path fill="#122738" d="
  M 281.89 167.53
  C 281.81 174.43 280.14 187.33 285.79 192.73
  A 0.56 0.56 0.0 0 1 285.84 193.49
  C 284.09 195.62 282.30 197.52 280.79 199.84
  Q 277.72 204.58 274.37 209.12
  Q 274.00 209.62 274.00 209.00
  L 274.01 165.25
  Q 274.01 165.05 274.19 165.11
  L 281.77 167.37
  Q 281.89 167.41 281.89 167.53
  Z"
/>
<path fill="#122738" d="
  M 182.51 217.46
  A 0.10 0.09 39.0 0 1 182.35 217.47
  C 174.58 206.93 172.49 190.19 173.55 177.71
  Q 173.62 176.97 173.80 177.69
  Q 175.67 184.89 178.46 192.01
  C 180.29 196.67 185.70 201.89 189.17 205.54
  Q 189.55 205.94 189.22 206.38
  Q 185.25 211.55 182.51 217.46
  Z"
/>
<path fill="#122738" d="
  M 322.06 193.42
  C 324.19 188.12 326.44 183.61 327.67 177.90
  Q 327.89 176.89 328.02 177.92
  Q 329.60 190.32 325.69 202.74
  C 324.09 207.84 322.47 212.65 319.60 217.21
  A 0.38 0.37 45.4 0 1 318.96 217.20
  L 312.24 206.27
  A 0.71 0.71 0.0 0 1 312.34 205.39
  C 315.50 202.21 320.37 197.62 322.06 193.42
  Z"
/>
<path fill="#122738" d="
  M 233.92 235.40
  Q 234.58 237.09 233.34 235.77
  Q 227.75 229.79 221.37 223.98
  C 215.02 218.20 206.47 212.01 199.14 205.90
  A 0.43 0.43 0.0 0 1 199.10 205.28
  Q 203.14 200.89 208.16 197.59
  Q 209.97 196.41 211.13 198.03
  C 213.67 201.56 216.11 204.20 217.42 206.28
  C 221.47 212.71 226.51 219.10 229.60 225.48
  Q 231.82 230.06 233.92 235.40
  Z"
/>
<path fill="#122738" d="
  M 267.91 235.89
  Q 271.88 224.33 274.77 220.52
  C 278.52 215.56 281.59 209.74 285.03 205.16
  Q 287.53 201.84 290.12 198.59
  Q 291.87 196.41 293.91 197.78
  Q 298.60 200.95 302.21 204.94
  A 0.86 0.86 0.0 0 1 302.10 206.20
  Q 295.38 211.37 289.01 216.78
  C 287.28 218.25 285.29 219.31 283.74 220.81
  Q 277.79 226.57 271.80 232.29
  C 270.98 233.07 269.57 235.06 268.33 236.17
  Q 267.58 236.83 267.91 235.89
  Z"
/>
<path fill="#122738" d="
  M 187.83 221.01
  L 194.02 211.00
  A 0.75 0.75 0.0 0 1 195.09 210.78
  Q 196.37 211.68 198.06 213.69
  Q 199.40 215.28 205.88 219.63
  Q 214.00 225.08 223.44 234.96
  Q 224.22 235.77 223.14 235.46
  Q 220.56 234.73 213.01 232.79
  Q 199.66 229.35 188.13 222.26
  A 0.91 0.90 31.8 0 1 187.83 221.01
  Z"
/>
<path fill="#122738" d="
  M 313.44 222.42
  C 302.70 228.91 290.33 233.39 277.99 235.55
  Q 277.61 235.62 277.87 235.34
  Q 287.02 225.82 297.74 218.14
  C 300.79 215.96 303.32 213.36 306.22 210.99
  A 0.82 0.82 0.0 0 1 307.43 211.18
  L 313.72 221.23
  A 0.86 0.86 0.0 0 1 313.44 222.42
  Z"
/>
<path fill="#122738" d="
  M 292.18 240.28
  L 308.73 234.82
  A 0.30 0.30 0.0 0 1 309.03 235.33
  L 292.49 250.88
  A 0.30 0.30 0.0 0 1 291.99 250.66
  L 291.97 240.57
  A 0.30 0.30 0.0 0 1 292.18 240.28
  Z"
/>
<path fill="#122738" d="
  M 208.86 250.84
  L 193.04 235.83
  A 0.51 0.51 0.0 0 1 193.55 234.97
  L 209.41 240.02
  A 0.51 0.51 0.0 0 1 209.77 240.51
  L 209.72 250.47
  A 0.51 0.51 0.0 0 1 208.86 250.84
  Z"
/>
<path fill="#122738" d="
  M 235.68 267.34
  C 235.00 271.59 238.62 274.24 242.48 274.10
  Q 242.95 274.08 242.95 274.55
  L 243.00 281.45
  Q 243.01 282.97 241.95 281.87
  L 231.37 270.82
  Q 230.84 270.27 231.21 269.60
  C 233.57 265.33 235.02 261.09 232.49 256.38
  Q 227.18 246.47 215.83 248.05
  Q 215.53 248.10 215.52 247.79
  L 215.41 241.54
  Q 215.41 241.35 215.60 241.38
  L 237.72 244.83
  A 0.86 0.86 0.0 0 1 238.43 245.49
  L 242.74 264.44
  A 0.93 0.93 0.0 0 1 241.49 265.52
  L 239.03 264.55
  Q 238.45 264.32 237.86 264.54
  Q 236.02 265.21 235.68 267.34
  Z"
/>
<path fill="#122738" d="
  M 260.23 273.87
  C 269.65 273.10 266.20 260.62 260.18 265.64
  A 0.52 0.52 0.0 0 1 259.34 265.37
  Q 259.13 264.59 259.24 263.49
  Q 260.15 254.16 263.46 245.80
  Q 263.76 245.03 264.59 244.90
  L 285.85 241.67
  Q 286.31 241.60 286.32 242.07
  L 286.38 247.50
  A 0.53 0.52 -86.7 0 1 285.79 248.03
  C 278.82 247.14 271.67 250.07 268.77 256.57
  C 266.68 261.26 268.14 265.33 270.59 269.81
  Q 270.86 270.30 270.47 270.69
  L 258.95 282.24
  A 0.05 0.05 0.0 0 1 258.86 282.21
  L 258.78 274.56
  Q 258.78 274.29 259.01 274.13
  Q 259.25 273.95 260.23 273.87
  Z"
/>
<path fill="#122738" d="
  M 249.26 264.78
  L 247.36 245.59
  A 0.34 0.34 0.0 0 1 247.69 245.21
  L 253.92 245.09
  A 0.34 0.34 0.0 0 1 254.27 245.46
  L 252.52 265.01
  A 0.34 0.34 0.0 0 1 252.15 265.32
  L 249.57 265.09
  A 0.34 0.34 0.0 0 1 249.26 264.78
  Z"
/>
<path fill="#122738" d="
  M 214.23 256.15
  A 0.17 0.17 0.0 0 1 214.21 255.91
  L 214.22 255.90
  A 7.66 6.43 40.9 0 1 224.22 256.05
  L 224.37 256.18
  A 7.66 6.43 40.9 0 1 225.95 266.06
  L 225.94 266.07
  A 0.17 0.17 0.0 0 1 225.70 266.09
  L 214.23 256.15
  Z"
/>
<path fill="#122738" d="
  M 286.38 256.64
  L 277.13 265.08
  A 1.46 1.46 0.0 0 1 274.75 264.41
  L 273.82 261.25
  A 1.46 1.46 0.0 0 1 274.05 259.96
  L 277.02 256.01
  A 1.46 1.46 0.0 0 1 277.92 255.45
  L 285.14 254.12
  A 1.46 1.46 0.0 0 1 286.38 256.64
  Z"
/>
<path fill="#122738" d="
  M 252.21 274.24
  A 0.69 0.69 0.0 0 1 252.90 274.93
  L 252.85 282.42
  A 6.82 1.81 -89.6 0 1 250.99 289.23
  L 250.83 289.23
  A 6.82 1.81 -89.6 0 1 249.07 282.40
  L 249.12 274.91
  A 0.69 0.69 0.0 0 1 249.81 274.22
  L 252.21 274.24
  Z"
/>
<rect fill="#122738" x="-8.28" y="-1.40" transform="translate(250.69,307.10) rotate(-0.2)" width="16.56" height="2.80" rx="1.36"/>
<rect fill="#122738" x="-7.58" y="-1.38" transform="translate(250.83,318.32) rotate(-0.2)" width="15.16" height="2.76" rx="1.34"/>
<rect fill="#122738" x="-7.73" y="-1.44" transform="translate(250.86,328.28) rotate(0.1)" width="15.46" height="2.88" rx="1.40"/>
<path fill="#122738" d="
  M 154.54 409.52
  L 154.53 417.36
  A 0.60 0.60 0.0 0 0 155.13 417.96
  L 168.72 417.91
  A 0.60 0.60 0.0 0 1 169.32 418.55
  L 168.93 424.43
  A 0.60 0.60 0.0 0 1 168.33 424.99
  L 155.14 424.91
  A 0.60 0.60 0.0 0 0 154.54 425.51
  L 154.52 439.66
  A 0.60 0.60 0.0 0 1 153.91 440.26
  L 147.64 440.18
  A 0.60 0.60 0.0 0 1 147.05 439.58
  L 147.04 402.57
  A 0.60 0.60 0.0 0 1 147.64 401.97
  L 172.95 401.79
  A 0.60 0.60 0.0 0 1 173.55 402.40
  L 173.49 408.40
  A 0.60 0.60 0.0 0 1 172.88 409.00
  L 155.14 408.92
  A 0.60 0.60 0.0 0 0 154.54 409.52
  Z"
/>
<path fill="#122738" d="
  M 231.28 424.94
  L 231.30 402.96
  Q 231.30 402.10 232.16 402.05
  C 240.24 401.64 253.35 400.11 257.38 409.80
  C 260.40 417.06 257.44 425.23 249.77 427.75
  C 246.46 428.84 243.04 428.94 239.62 428.81
  Q 238.96 428.79 238.96 429.45
  L 238.95 439.45
  A 0.67 0.66 -90.0 0 1 238.29 440.12
  L 223.52 440.11
  A 0.53 0.53 0.0 0 1 222.99 439.59
  Q 222.98 433.59 222.95 427.49
  Q 222.94 422.95 222.00 421.18
  C 220.10 417.61 213.70 417.47 211.40 421.07
  C 209.41 424.19 210.27 435.38 210.37 439.21
  Q 210.39 440.07 209.54 440.07
  L 203.78 440.07
  Q 203.00 440.07 203.00 439.28
  L 203.00 412.23
  Q 203.00 411.46 203.77 411.44
  L 209.83 411.31
  Q 210.60 411.30 210.61 412.07
  L 210.61 413.97
  A 0.26 0.26 0.0 0 0 211.04 414.17
  C 215.31 410.59 219.92 410.01 224.70 413.09
  C 228.82 415.75 230.30 420.38 230.82 424.96
  A 0.23 0.23 0.0 0 0 231.28 424.94
  Z
  M 239.01 409.24
  L 238.93 421.58
  A 0.71 0.71 0.0 0 0 239.63 422.29
  L 243.99 422.32
  A 6.95 6.68 0.4 0 0 250.99 415.69
  L 250.99 415.29
  A 6.95 6.68 0.4 0 0 244.09 408.56
  L 239.73 408.53
  A 0.71 0.71 0.0 0 0 239.01 409.24
  Z"
/>
<path fill="#122738" d="
  M 313.21 437.45
  C 298.95 447.59 284.47 426.84 296.82 415.06
  Q 304.34 407.88 313.08 413.49
  Q 313.55 413.79 313.55 413.24
  L 313.52 402.48
  Q 313.52 401.99 314.02 401.98
  L 320.65 401.85
  Q 321.03 401.85 321.03 402.23
  L 321.01 439.46
  A 0.73 0.72 90.0 0 1 320.29 440.19
  L 314.16 440.15
  Q 313.42 440.15 313.50 439.41
  L 313.68 437.73
  Q 313.75 437.07 313.21 437.45
  Z
  M 313.60 425.64
  A 7.06 7.06 0.0 0 0 306.54 418.58
  A 7.06 7.06 0.0 0 0 299.48 425.64
  A 7.06 7.06 0.0 0 0 306.54 432.70
  A 7.06 7.06 0.0 0 0 313.60 425.64
  Z"
/>
<rect fill="#122738" x="-3.67" y="-19.16" transform="translate(354.34,421.03) rotate(-0.2)" width="7.34" height="38.32" rx="0.79"/>
<path fill="#122738" d="
  M 190.88 437.63
  C 188.02 439.12 185.46 440.76 181.91 440.26
  C 175.36 439.33 170.12 432.98 169.77 426.52
  C 169.23 416.45 181.36 406.03 190.63 413.62
  Q 191.75 414.53 191.42 413.12
  Q 191.05 411.53 192.25 411.41
  Q 195.12 411.12 197.97 411.39
  Q 198.50 411.44 198.50 411.97
  L 198.45 439.56
  A 0.52 0.51 90.0 0 1 197.94 440.08
  L 191.94 440.04
  A 0.57 0.56 -88.5 0 1 191.38 439.44
  L 191.45 437.99
  A 0.39 0.39 0.0 0 0 190.88 437.63
  Z
  M 191.51 425.69
  A 7.20 7.20 0.0 0 0 184.31 418.49
  A 7.20 7.20 0.0 0 0 177.11 425.69
  A 7.20 7.20 0.0 0 0 184.31 432.89
  A 7.20 7.20 0.0 0 0 191.51 425.69
  Z"
/>
<path fill="#122738" d="
  M 280.30 437.48
  C 272.60 443.31 262.06 439.07 259.86 429.87
  C 258.65 424.80 259.79 417.88 264.16 414.39
  Q 272.09 408.05 280.42 413.71
  Q 281.00 414.09 280.89 413.41
  L 280.70 412.28
  A 0.79 0.79 0.0 0 1 281.47 411.37
  L 286.78 411.28
  A 1.00 1.00 0.0 0 1 287.80 412.28
  L 287.72 439.29
  Q 287.72 440.06 286.96 440.06
  L 281.79 440.04
  Q 281.03 440.04 281.00 439.29
  L 280.95 437.79
  Q 280.92 437.02 280.30 437.48
  Z
  M 280.92 425.68
  A 7.24 7.24 0.0 0 0 273.68 418.44
  A 7.24 7.24 0.0 0 0 266.44 425.68
  A 7.24 7.24 0.0 0 0 273.68 432.92
  A 7.24 7.24 0.0 0 0 280.92 425.68
  Z"
/>
<path fill="#122738" d="
  M 329.70 428.43
  C 331.19 434.04 338.81 433.90 342.46 430.82
  Q 342.66 430.66 342.83 430.84
  L 346.70 434.96
  Q 346.84 435.11 346.70 435.25
  C 344.84 437.06 342.93 438.83 340.40 439.59
  C 321.55 445.23 314.81 416.21 333.24 411.39
  C 342.80 408.90 349.09 418.75 348.67 427.13
  Q 348.64 427.75 348.02 427.75
  L 330.22 427.75
  Q 329.51 427.75 329.70 428.43
  Z
  M 330.28 422.39
  L 341.66 422.55
  A 0.19 0.19 0.0 0 0 341.85 422.36
  L 341.85 422.31
  A 5.77 3.84 0.8 0 0 336.14 418.39
  L 335.92 418.39
  A 5.77 3.84 0.8 0 0 330.10 422.15
  L 330.09 422.20
  A 0.19 0.19 0.0 0 0 330.28 422.39
  Z"
/>
</svg>
